<svg preserveAspectRatio="none" width="100%" height="100%" overflow="visible" style="display: block;" viewBox="0 0 16 16" fill="none" xmlns="http://www.w3.org/2000/svg">
<path id="Vector" d="M15.3333 14.6667H3.33333C2.8029 14.6667 2.29419 14.456 1.91912 14.0809C1.54405 13.7058 1.33333 13.1971 1.33333 12.6667V0.666667C1.33333 0.489856 1.2631 0.320286 1.13807 0.195262C1.01305 0.0702379 0.843478 0 0.666667 0C0.489856 0 0.320286 0.0702379 0.195262 0.195262C0.0702379 0.320286 0 0.489856 0 0.666667L0 12.6667C0.00105857 13.5504 0.352588 14.3976 0.97748 15.0225C1.60237 15.6474 2.4496 15.9989 3.33333 16H15.3333C15.5101 16 15.6797 15.9298 15.8047 15.8047C15.9298 15.6797 16 15.5101 16 15.3333C16 15.1565 15.9298 14.987 15.8047 14.8619C15.6797 14.7369 15.5101 14.6667 15.3333 14.6667Z" fill="var(--fill-0, #4F575E)"/>
</svg>
