<svg preserveAspectRatio="none" width="100%" height="100%" overflow="visible" style="display: block;" viewBox="0 0 15.9999 16" fill="none" xmlns="http://www.w3.org/2000/svg">
<g id="Vector">
<path d="M4.66667 2.38419e-07H2.66667C1.95943 2.38419e-07 1.28115 0.280952 0.781054 0.781049C0.280957 1.28115 5.08626e-06 1.95942 5.08626e-06 2.66667V4.66667C5.08626e-06 5.37391 0.280957 6.05219 0.781054 6.55228C1.28115 7.05238 1.95943 7.33333 2.66667 7.33333H4.66667C5.37392 7.33333 6.05219 7.05238 6.55229 6.55228C7.05239 6.05219 7.33334 5.37391 7.33334 4.66667V2.66667C7.33334 1.95942 7.05239 1.28115 6.55229 0.781049C6.05219 0.280952 5.37392 2.38419e-07 4.66667 2.38419e-07ZM6 4.66667C6 5.02029 5.85953 5.35943 5.60948 5.60948C5.35943 5.85952 5.02029 6 4.66667 6H2.66667C2.31305 6 1.97391 5.85952 1.72386 5.60948C1.47381 5.35943 1.33334 5.02029 1.33334 4.66667V2.66667C1.33334 2.31304 1.47381 1.97391 1.72386 1.72386C1.97391 1.47381 2.31305 1.33333 2.66667 1.33333H4.66667C5.02029 1.33333 5.35943 1.47381 5.60948 1.72386C5.85953 1.97391 6 2.31304 6 2.66667V4.66667Z" fill="var(--fill-0, #4F575E)"/>
<path d="M13.3332 0H11.3332C10.626 0 9.94772 0.280952 9.44762 0.781049C8.94753 1.28115 8.66657 1.95942 8.66657 2.66667V4.66667C8.66657 5.37391 8.94753 6.05219 9.44762 6.55229C9.94772 7.05239 10.626 7.33334 11.3332 7.33334H13.3332C14.0405 7.33334 14.7188 7.05239 15.2188 6.55229C15.7189 6.05219 15.9999 5.37391 15.9999 4.66667V2.66667C15.9999 1.95942 15.7189 1.28115 15.2188 0.781049C14.7188 0.280952 14.0405 0 13.3332 0ZM14.6666 4.66667C14.6666 5.02029 14.5261 5.35943 14.276 5.60948C14.026 5.85953 13.6869 6 13.3332 6H11.3332C10.9796 6 10.6405 5.85953 10.3904 5.60948C10.1404 5.35943 9.99991 5.02029 9.99991 4.66667V2.66667C9.99991 2.31305 10.1404 1.97391 10.3904 1.72386C10.6405 1.47381 10.9796 1.33333 11.3332 1.33333H13.3332C13.6869 1.33333 14.026 1.47381 14.276 1.72386C14.5261 1.97391 14.6666 2.31305 14.6666 2.66667V4.66667Z" fill="var(--fill-0, #4F575E)"/>
<path d="M4.66667 8.66667H2.66667C1.95942 8.66667 1.28115 8.94762 0.781049 9.44772C0.280952 9.94781 0 10.6261 0 11.3333V13.3333C0 14.0406 0.280952 14.7189 0.781049 15.219C1.28115 15.7191 1.95942 16 2.66667 16H4.66667C5.37391 16 6.05219 15.7191 6.55228 15.219C7.05238 14.7189 7.33333 14.0406 7.33333 13.3333V11.3333C7.33333 10.6261 7.05238 9.94781 6.55228 9.44772C6.05219 8.94762 5.37391 8.66667 4.66667 8.66667ZM6 13.3333C6 13.687 5.85952 14.0261 5.60948 14.2762C5.35943 14.5262 5.02029 14.6667 4.66667 14.6667H2.66667C2.31304 14.6667 1.97391 14.5262 1.72386 14.2762C1.47381 14.0261 1.33333 13.687 1.33333 13.3333V11.3333C1.33333 10.9797 1.47381 10.6406 1.72386 10.3905C1.97391 10.1405 2.31304 10 2.66667 10H4.66667C5.02029 10 5.35943 10.1405 5.60948 10.3905C5.85952 10.6406 6 10.9797 6 11.3333V13.3333Z" fill="var(--fill-0, #4F575E)"/>
<path d="M13.3332 8.66667H11.3332C10.626 8.66667 9.94772 8.94762 9.44762 9.44772C8.94753 9.94781 8.66657 10.6261 8.66657 11.3333V13.3333C8.66657 14.0406 8.94753 14.7189 9.44762 15.219C9.94772 15.7191 10.626 16 11.3332 16H13.3332C14.0405 16 14.7188 15.7191 15.2188 15.219C15.7189 14.7189 15.9999 14.0406 15.9999 13.3333V11.3333C15.9999 10.6261 15.7189 9.94781 15.2188 9.44772C14.7188 8.94762 14.0405 8.66667 13.3332 8.66667ZM14.6666 13.3333C14.6666 13.687 14.5261 14.0261 14.276 14.2762C14.026 14.5262 13.6869 14.6667 13.3332 14.6667H11.3332C10.9796 14.6667 10.6405 14.5262 10.3904 14.2762C10.1404 14.0261 9.99991 13.687 9.99991 13.3333V11.3333C9.99991 10.9797 10.1404 10.6406 10.3904 10.3905C10.6405 10.1405 10.9796 10 11.3332 10H13.3332C13.6869 10 14.026 10.1405 14.276 10.3905C14.5261 10.6406 14.6666 10.9797 14.6666 11.3333V13.3333Z" fill="var(--fill-0, #4F575E)"/>
</g>
</svg>
